<?xml version="1.0" encoding="UTF-8" standalone="no"?><svg xmlns="http://www.w3.org/2000/svg" xmlns:xlink="http://www.w3.org/1999/xlink" contentStyleType="text/css" height="223px" preserveAspectRatio="none" style="width:447px;height:223px;background:#FFFFFF;" version="1.1" viewBox="0 0 447 223" width="447px" zoomAndPan="magnify"><defs/><g><rect fill="none" height="117.5313" style="stroke:#000000;stroke-width:1.5;" width="431.5" x="10" y="53.2969"/><line style="stroke:#181818;stroke-width:0.5;stroke-dasharray:5.0,5.0;" x1="52" x2="52" y1="36.2969" y2="187.8281"/><line style="stroke:#181818;stroke-width:0.5;stroke-dasharray:5.0,5.0;" x1="226" x2="226" y1="36.2969" y2="187.8281"/><rect fill="#E2E2F0" height="30.2969" rx="2.5" ry="2.5" style="stroke:#181818;stroke-width:0.5;" width="65" x="20" y="5"/><text fill="#000000" font-family="sans-serif" font-size="14" lengthAdjust="spacing" textLength="51" x="27" y="24.9951">Usuario</text><rect fill="#E2E2F0" height="30.2969" rx="2.5" ry="2.5" style="stroke:#181818;stroke-width:0.5;" width="65" x="20" y="186.8281"/><text fill="#000000" font-family="sans-serif" font-size="14" lengthAdjust="spacing" textLength="51" x="27" y="206.8232">Usuario</text><rect fill="#E2E2F0" height="30.2969" rx="2.5" ry="2.5" style="stroke:#181818;stroke-width:0.5;" width="79" x="187" y="5"/><text fill="#000000" font-family="sans-serif" font-size="14" lengthAdjust="spacing" textLength="65" x="194" y="24.9951">Producto</text><rect fill="#E2E2F0" height="30.2969" rx="2.5" ry="2.5" style="stroke:#181818;stroke-width:0.5;" width="79" x="187" y="186.8281"/><text fill="#000000" font-family="sans-serif" font-size="14" lengthAdjust="spacing" textLength="65" x="194" y="206.8232">Producto</text><path d="M10,53.2969 L98,53.2969 L98,60.4297 L88,70.4297 L10,70.4297 L10,53.2969 " fill="#EEEEEE" style="stroke:#000000;stroke-width:1.5;"/><rect fill="none" height="117.5313" style="stroke:#000000;stroke-width:1.5;" width="431.5" x="10" y="53.2969"/><text fill="#000000" font-family="sans-serif" font-size="13" font-weight="bold" lengthAdjust="spacing" textLength="38" x="25" y="66.3638">RFC4</text><text fill="#000000" font-family="sans-serif" font-size="11" font-weight="bold" lengthAdjust="spacing" textLength="97" x="113" y="65.5073">[Caso Exitoso]</text><polygon fill="#181818" points="214.5,87.5625,224.5,91.5625,214.5,95.5625,218.5,91.5625" style="stroke:#181818;stroke-width:1.0;"/><line style="stroke:#181818;stroke-width:1.0;" x1="52.5" x2="220.5" y1="91.5625" y2="91.5625"/><text fill="#000000" font-family="sans-serif" font-size="13" lengthAdjust="spacing" textLength="92" x="59.5" y="86.4966">Envio Solicitud</text><line style="stroke:#181818;stroke-width:1.0;" x1="226.5" x2="268.5" y1="120.6953" y2="120.6953"/><line style="stroke:#181818;stroke-width:1.0;" x1="268.5" x2="268.5" y1="120.6953" y2="133.6953"/><line style="stroke:#181818;stroke-width:1.0;" x1="227.5" x2="268.5" y1="133.6953" y2="133.6953"/><polygon fill="#181818" points="237.5,129.6953,227.5,133.6953,237.5,137.6953,233.5,133.6953" style="stroke:#181818;stroke-width:1.0;"/><text fill="#000000" font-family="sans-serif" font-size="13" lengthAdjust="spacing" textLength="196" x="233.5" y="115.6294">Filtrado datos por x parámetro</text><polygon fill="#181818" points="63.5,158.8281,53.5,162.8281,63.5,166.8281,59.5,162.8281" style="stroke:#181818;stroke-width:1.0;"/><line style="stroke:#181818;stroke-width:1.0;stroke-dasharray:2.0,2.0;" x1="57.5" x2="225.5" y1="162.8281" y2="162.8281"/><text fill="#000000" font-family="sans-serif" font-size="13" lengthAdjust="spacing" textLength="150" x="69.5" y="157.7622">Retorno de lista filtrada</text><!--MD5=[b72e281a4423d32bb9d8671a1e019da1]
@startuml
group RFC4 [Caso Exitoso]
  Usuario -> Producto : Envio Solicitud
  Producto -> Producto : Filtrado datos por x parámetro
  Producto - -> Usuario: Retorno de lista filtrada

end
@enduml

PlantUML version 1.2022.8beta2(Unknown compile time)
(GPL source distribution)
Java Runtime: Java(TM) SE Runtime Environment
JVM: Java HotSpot(TM) 64-Bit Server VM
Default Encoding: UTF-8
Language: en
Country: US
--></g></svg>