<?xml version="1.0" encoding="UTF-8" standalone="no"?><svg xmlns="http://www.w3.org/2000/svg" xmlns:xlink="http://www.w3.org/1999/xlink" contentStyleType="text/css" height="310px" preserveAspectRatio="none" style="width:665px;height:310px;background:#FFFFFF;" version="1.1" viewBox="0 0 665 310" width="665px" zoomAndPan="magnify"><defs/><g><rect fill="none" height="204.9297" style="stroke:#000000;stroke-width:1.5;" width="649" x="10" y="53.2969"/><line style="stroke:#181818;stroke-width:0.5;stroke-dasharray:5.0,5.0;" x1="52" x2="52" y1="36.2969" y2="275.2266"/><line style="stroke:#181818;stroke-width:0.5;stroke-dasharray:5.0,5.0;" x1="168.5" x2="168.5" y1="36.2969" y2="275.2266"/><line style="stroke:#181818;stroke-width:0.5;stroke-dasharray:5.0,5.0;" x1="355" x2="355" y1="36.2969" y2="275.2266"/><line style="stroke:#181818;stroke-width:0.5;stroke-dasharray:5.0,5.0;" x1="609" x2="609" y1="36.2969" y2="275.2266"/><rect fill="#E2E2F0" height="30.2969" rx="2.5" ry="2.5" style="stroke:#181818;stroke-width:0.5;" width="65" x="20" y="5"/><text fill="#000000" font-family="sans-serif" font-size="14" lengthAdjust="spacing" textLength="51" x="27" y="24.9951">Usuario</text><rect fill="#E2E2F0" height="30.2969" rx="2.5" ry="2.5" style="stroke:#181818;stroke-width:0.5;" width="65" x="20" y="274.2266"/><text fill="#000000" font-family="sans-serif" font-size="14" lengthAdjust="spacing" textLength="51" x="27" y="294.2217">Usuario</text><rect fill="#E2E2F0" height="30.2969" rx="2.5" ry="2.5" style="stroke:#181818;stroke-width:0.5;" width="72" x="132.5" y="5"/><text fill="#000000" font-family="sans-serif" font-size="14" lengthAdjust="spacing" textLength="58" x="139.5" y="24.9951">Sucursal</text><rect fill="#E2E2F0" height="30.2969" rx="2.5" ry="2.5" style="stroke:#181818;stroke-width:0.5;" width="72" x="132.5" y="274.2266"/><text fill="#000000" font-family="sans-serif" font-size="14" lengthAdjust="spacing" textLength="58" x="139.5" y="294.2217">Sucursal</text><rect fill="#E2E2F0" height="30.2969" rx="2.5" ry="2.5" style="stroke:#181818;stroke-width:0.5;" width="91" x="310" y="5"/><text fill="#000000" font-family="sans-serif" font-size="14" lengthAdjust="spacing" textLength="77" x="317" y="24.9951">Promocion</text><rect fill="#E2E2F0" height="30.2969" rx="2.5" ry="2.5" style="stroke:#181818;stroke-width:0.5;" width="91" x="310" y="274.2266"/><text fill="#000000" font-family="sans-serif" font-size="14" lengthAdjust="spacing" textLength="77" x="317" y="294.2217">Promocion</text><rect fill="#E2E2F0" height="30.2969" rx="2.5" ry="2.5" style="stroke:#181818;stroke-width:0.5;" width="79" x="570" y="5"/><text fill="#000000" font-family="sans-serif" font-size="14" lengthAdjust="spacing" textLength="65" x="577" y="24.9951">Producto</text><rect fill="#E2E2F0" height="30.2969" rx="2.5" ry="2.5" style="stroke:#181818;stroke-width:0.5;" width="79" x="570" y="274.2266"/><text fill="#000000" font-family="sans-serif" font-size="14" lengthAdjust="spacing" textLength="65" x="577" y="294.2217">Producto</text><path d="M10,53.2969 L98,53.2969 L98,60.4297 L88,70.4297 L10,70.4297 L10,53.2969 " fill="#EEEEEE" style="stroke:#000000;stroke-width:1.5;"/><rect fill="none" height="204.9297" style="stroke:#000000;stroke-width:1.5;" width="649" x="10" y="53.2969"/><text fill="#000000" font-family="sans-serif" font-size="13" font-weight="bold" lengthAdjust="spacing" textLength="38" x="25" y="66.3638">RFC2</text><text fill="#000000" font-family="sans-serif" font-size="11" font-weight="bold" lengthAdjust="spacing" textLength="97" x="113" y="65.5073">[Caso Exitoso]</text><polygon fill="#181818" points="156.5,87.5625,166.5,91.5625,156.5,95.5625,160.5,91.5625" style="stroke:#181818;stroke-width:1.0;"/><line style="stroke:#181818;stroke-width:1.0;" x1="52.5" x2="162.5" y1="91.5625" y2="91.5625"/><text fill="#000000" font-family="sans-serif" font-size="13" lengthAdjust="spacing" textLength="92" x="59.5" y="86.4966">Envio Solicitud</text><polygon fill="#181818" points="343.5,116.6953,353.5,120.6953,343.5,124.6953,347.5,120.6953" style="stroke:#181818;stroke-width:1.0;"/><line style="stroke:#181818;stroke-width:1.0;" x1="168.5" x2="349.5" y1="120.6953" y2="120.6953"/><text fill="#000000" font-family="sans-serif" font-size="13" lengthAdjust="spacing" textLength="163" x="175.5" y="115.6294">Consulta de promociones</text><polygon fill="#181818" points="597.5,145.8281,607.5,149.8281,597.5,153.8281,601.5,149.8281" style="stroke:#181818;stroke-width:1.0;"/><line style="stroke:#181818;stroke-width:1.0;" x1="355.5" x2="603.5" y1="149.8281" y2="149.8281"/><text fill="#000000" font-family="sans-serif" font-size="13" lengthAdjust="spacing" textLength="212" x="362.5" y="144.7622">Consulta de productos asociados</text><polygon fill="#181818" points="366.5,174.9609,356.5,178.9609,366.5,182.9609,362.5,178.9609" style="stroke:#181818;stroke-width:1.0;"/><line style="stroke:#181818;stroke-width:1.0;stroke-dasharray:2.0,2.0;" x1="360.5" x2="608.5" y1="178.9609" y2="178.9609"/><text fill="#000000" font-family="sans-serif" font-size="13" lengthAdjust="spacing" textLength="195" x="372.5" y="173.895">Retorno productos comprados</text><line style="stroke:#181818;stroke-width:1.0;" x1="355.5" x2="397.5" y1="208.0938" y2="208.0938"/><line style="stroke:#181818;stroke-width:1.0;" x1="397.5" x2="397.5" y1="208.0938" y2="221.0938"/><line style="stroke:#181818;stroke-width:1.0;" x1="356.5" x2="397.5" y1="221.0938" y2="221.0938"/><polygon fill="#181818" points="366.5,217.0938,356.5,221.0938,366.5,225.0938,362.5,221.0938" style="stroke:#181818;stroke-width:1.0;"/><text fill="#000000" font-family="sans-serif" font-size="13" lengthAdjust="spacing" textLength="240" x="362.5" y="203.0278">Filtrado de datos a los más populares</text><polygon fill="#181818" points="63.5,246.2266,53.5,250.2266,63.5,254.2266,59.5,250.2266" style="stroke:#181818;stroke-width:1.0;"/><line style="stroke:#181818;stroke-width:1.0;stroke-dasharray:2.0,2.0;" x1="57.5" x2="354.5" y1="250.2266" y2="250.2266"/><text fill="#000000" font-family="sans-serif" font-size="13" lengthAdjust="spacing" textLength="205" x="69.5" y="245.1606">Retorno promociones populares</text><!--MD5=[77a6cb17ccbe402642ad2b0d7605ed7a]
@startuml
group RFC2 [Caso Exitoso]
  Usuario -> Sucursal : Envio Solicitud
  Sucursal -> Promocion : Consulta de promociones
  Promocion -> Producto : Consulta de productos asociados
  Producto - -> Promocion: Retorno productos comprados
  Promocion -> Promocion : Filtrado de datos a los más populares
  
  Promocion - -> Usuario : Retorno promociones populares

end
@enduml

PlantUML version 1.2022.8beta2(Unknown compile time)
(GPL source distribution)
Java Runtime: Java(TM) SE Runtime Environment
JVM: Java HotSpot(TM) 64-Bit Server VM
Default Encoding: UTF-8
Language: en
Country: US
--></g></svg>